<?xml version="1.0" standalone="no"?>
<!DOCTYPE svg PUBLIC "-//W3C//DTD SVG 20010904//EN"
 "http://www.w3.org/TR/2001/REC-SVG-20010904/DTD/svg10.dtd">
<svg version="1.0" xmlns="http://www.w3.org/2000/svg"
 width="700.000000pt" height="700.000000pt" viewBox="0 0 700.000000 700.000000"
 preserveAspectRatio="xMidYMid meet">
<metadata>
Created by potrace 1.11, written by Peter Selinger 2001-2013
</metadata>
<g transform="translate(0.000000,700.000000) scale(0.100000,-0.100000)"
fill="#000000" stroke="none">
<path d="M3370 6984 c-130 -34 -260 -127 -331 -237 -37 -58 -77 -159 -83 -214
-2 -15 -4 -427 -5 -914 l-1 -886 -52 -16 c-29 -9 -93 -28 -143 -42 -49 -15
-173 -51 -275 -82 -102 -30 -194 -57 -205 -60 -16 -4 -217 -64 -260 -77 -6 -2
-10 44 -11 123 -1 148 -17 213 -69 284 -39 52 -117 106 -179 125 -22 6 -71 10
-110 8 -131 -5 -232 -74 -290 -196 l-30 -65 -3 -215 c-1 -118 -2 -227 -3 -242
0 -27 -4 -30 -60 -43 -3 -1 -12 -4 -20 -7 -8 -4 -141 -43 -295 -88 -154 -45
-300 -88 -325 -96 -25 -7 -92 -27 -150 -44 -58 -17 -141 -42 -185 -55 -44 -13
-112 -33 -150 -44 l-70 -20 0 -393 0 -393 40 -1 c22 0 58 3 80 7 22 4 63 10
90 13 28 3 59 8 70 10 11 2 46 7 79 11 32 3 68 8 80 10 11 2 59 9 106 15 86
11 134 18 180 25 14 2 78 11 142 20 65 9 125 18 135 19 10 2 43 7 74 10 31 4
65 8 75 10 11 2 44 7 75 10 31 4 67 9 80 11 13 3 42 7 64 9 22 3 56 7 75 10
19 3 71 10 115 16 44 6 92 13 106 16 26 4 58 8 139 19 19 2 53 7 75 10 66 11
88 13 145 20 30 3 66 8 80 10 43 8 82 14 170 25 47 6 101 13 120 16 19 3 49 7
65 9 17 3 62 9 100 15 39 5 93 13 120 16 28 3 58 8 68 10 11 2 46 6 78 10 l59
7 0 -911 c0 -617 -3 -913 -10 -917 -6 -4 -70 -24 -143 -45 -184 -54 -527 -155
-647 -191 -36 -11 -72 -22 -80 -24 -45 -11 -296 -88 -299 -91 -7 -6 -7 -975 0
-985 3 -5 56 6 120 25 146 44 286 86 324 96 17 5 116 34 220 65 105 31 264 78
355 105 91 27 203 60 250 74 47 14 90 26 95 26 6 0 89 -158 185 -350 96 -193
177 -350 180 -350 3 0 84 157 180 350 96 192 178 350 183 350 9 0 115 -31 452
-131 116 -34 230 -68 255 -75 25 -7 176 -51 335 -99 160 -47 299 -88 310 -91
20 -5 20 0 19 493 l0 498 -210 62 c-115 34 -234 70 -264 79 -30 9 -98 29 -150
45 -52 16 -188 56 -303 89 -114 33 -218 65 -232 70 l-25 10 0 915 c0 504 4
914 8 911 7 -4 130 -23 202 -31 66 -7 127 -16 149 -20 14 -2 45 -7 70 -10 25
-3 57 -7 71 -10 14 -2 43 -7 65 -10 21 -2 74 -9 117 -15 43 -6 90 -13 105 -15
80 -10 403 -55 438 -60 22 -3 74 -10 115 -16 41 -6 104 -14 140 -19 36 -5 83
-12 105 -15 22 -3 51 -7 65 -10 14 -2 48 -7 75 -10 28 -3 113 -15 190 -26 77
-10 158 -22 180 -24 22 -3 51 -8 65 -10 23 -4 57 -9 155 -21 22 -2 51 -7 65
-9 14 -2 45 -7 70 -10 49 -6 110 -14 150 -20 78 -13 182 -27 230 -31 l55 -6 0
390 c0 248 -4 394 -10 400 -5 5 -35 16 -65 24 -30 9 -179 53 -330 98 -151 45
-327 97 -390 115 -303 89 -453 135 -457 139 -2 2 -5 111 -7 242 -2 239 -2 239
-30 301 -52 115 -156 188 -282 199 -112 10 -197 -24 -279 -110 -67 -71 -91
-158 -90 -328 0 -112 4 -109 -91 -79 -32 11 -115 36 -184 56 -126 37 -275 81
-385 115 -33 10 -111 33 -172 51 l-113 32 0 891 c-1 733 -3 902 -15 950 -43
182 -186 338 -362 397 -83 27 -224 33 -303 13z"/>
</g>
</svg>
